<?xml version="1.0" encoding="utf-8"?>
<!-- Generator: Adobe Illustrator 19.2.1, SVG Export Plug-In . SVG Version: 6.00 Build 0)  -->
<svg version="1.1" id="Layer_1" xmlns="http://www.w3.org/2000/svg" xmlns:xlink="http://www.w3.org/1999/xlink" x="0px" y="0px"
	 viewBox="0 0 80 80" style="enable-background:new 0 0 80 80;" xml:space="preserve">
<style type="text/css">
	.st0{fill:#FFFFFF;}
</style>
<path class="st0" d="M40,20c-6.2,0-11.3,5-11.3,11.3v17.5C28.8,55,33.8,60,40,60s11.3-5,11.3-11.3V31.3C51.3,25,46.2,20,40,20z
	 M48.8,48.8c0,4.8-3.9,8.8-8.8,8.8s-8.8-3.9-8.8-8.8V31.3c0-4.8,3.9-8.8,8.8-8.8s8.8,3.9,8.8,8.8V48.8z M40,26.3
	c-0.7,0-1.3,0.6-1.3,1.3v6.3c0,0.7,0.6,1.3,1.3,1.3c0.7,0,1.3-0.6,1.3-1.3v-6.3C41.3,26.8,40.7,26.3,40,26.3z"/>
</svg>
